# xmcd
#
# Track frame offsets:
#	150
#	12405
#	25405
#	36405
#	54827
#	67005
#	79740
#	93790
#	102567
#	124917
#	139012
#	152085
#	166540
#	178625
#	195065
#	210867
#	221925
#	240502
# Disc length: 3391 seconds
# Revision: 3
# Processed by: cddbd v1.5.1PL2 Copyright (c) Steve Scherf et al.
#
# Submitted via: libkcddb 0.21
#
DISCID=e90d3d12
DTITLE=Various Artist - Happy Hippie Hits
DYEAR=1980
DGENRE=Rock
TTITLE0=BILY STEWART - Summertime
TTITLE1=THE TURTLES - Happy Together
TTITLE2=THE ZOMBIES - She's Not There
TTITLE3=DONOVAN - Sunshine Superman
TTITLE4=THE TROGGS - Love Is All Around
TTITLE5=AMEN CORNER - If Paradise Is Half As Nice
TTITLE6=THE SMALL FACES - Lazy Sunday
TTITLE7=JEWEL AKENS - The Birds And The Bees
TTITLE8=MARY HOPKIN - Those Were The Days
TTITLE9=VAN MORRISON - Brown Eyed Girl
TTITLE10=JOHN FRED and HIS PLAYBOYBAND - Judy In Disguise (With Glasses)
TTITLE11=THE MARMELADE - Ob-La-Di,Ob-La-Da
TTITLE12=THE ASSOCIATION - Windy
TTITLE13=OLIVER - Good Morning Starshine
TTITLE14=THE SPENCER DAVIS GROUP - I'm A Man
TTITLE15=THE YARDBIRDS (WITH ERIC CLAPTON) - For Your Love
TTITLE16=SANTANA - With A Little Help From My Friends
TTITLE17=JIMI HENDRIX - Purple Haze
EXTD=
EXTT0=
EXTT1=
EXTT2=
EXTT3=
EXTT4=
EXTT5=
EXTT6=
EXTT7=
EXTT8=
EXTT9=
EXTT10=
EXTT11=
EXTT12=
EXTT13=
EXTT14=
EXTT15=
EXTT16=
EXTT17=
PLAYORDER=
